HIERARCHY
ROOT Hips
{
	OFFSET 0.000000 0.000000 0.000000
	CHANNELS 6 Xposition Yposition Zposition Zrotation Yrotation Xrotation 
	JOINT LHipJoint
	{
		OFFSET 0.000000 0.000000 0.000000
		CHANNELS 3 Zrotation Yrotation Xrotation
		JOINT LeftUpLeg
		{
			OFFSET 1.363060 -1.794630 0.839290
			CHANNELS 3 Zrotation Yrotation Xrotation
			JOINT LeftLeg
			{
				OFFSET 2.448110 -6.726130 0.000000
				CHANNELS 3 Zrotation Yrotation Xrotation
				JOINT LeftFoot
				{
					OFFSET 2.562200 -7.039590 0.000000
					CHANNELS 3 Zrotation Yrotation Xrotation
					JOINT LeftToeBase
					{
						OFFSET 0.157640 -0.433110 2.322550
						CHANNELS 3 Zrotation Yrotation Xrotation
						End Site
						{
							OFFSET 0.000000 0.000000 0.000000
						}
					}
				}
			}
		}
	}
	JOINT RHipJoint
	{
		OFFSET 0.000000 0.000000 0.000000
		CHANNELS 3 Zrotation Yrotation Xrotation
		JOINT RightUpLeg
		{
			OFFSET -1.305520 -1.794630 0.839290
			CHANNELS 3 Zrotation Yrotation Xrotation
			JOINT RightLeg
			{
				OFFSET -2.542530 -6.985550 0.000000
				CHANNELS 3 Zrotation Yrotation Xrotation
				JOINT RightFoot
				{
					OFFSET -2.568260 -7.056230 0.000000
					CHANNELS 3 Zrotation Yrotation Xrotation
					JOINT RightToeBase
					{
						OFFSET -0.164730 -0.452590 2.363150
						CHANNELS 3 Zrotation Yrotation Xrotation
						End Site
						{
							OFFSET 0.000000 0.000000 0.000000
						}
					}
				}
			}
		}
	}
}
MOTION
Frames: 28
Frame Time: 0.008333
3.273370 16.959778 1.133696 14.918605 -59.495648 15.420193 -9.618829 -0.958668 2.653179 -14.828989 -11.848867 -45.406012 -2.372861 0.298409 23.390442 0.960867 5.304489 -1.086010 1.073200 -0.000000 -39.837300 8.420106 1.511955 -5.871911 9.054672 -33.780275 -45.491961 4.532419 -3.241279 27.203332 -2.260460 -9.812179 -4.258030 -1.317900 -0.000000 -68.654800
3.282152 16.959865 1.145641 14.768653 -59.572211 15.703822 -9.623198 -0.970817 2.650298 -14.731515 -11.911322 -45.570048 -2.360308 0.296613 23.368395 0.975117 5.365894 -1.103767 1.082000 -0.000000 -39.771400 8.395067 1.516242 -5.889054 9.191235 -33.661446 -45.607040 4.539496 -3.227603 27.103020 -2.263580 -9.839930 -4.158096 -1.343800 0.000000 -68.644100
3.292819 16.959369 1.157136 14.605512 -59.686294 15.987655 -9.627727 -0.989087 2.636033 -14.621243 -11.965770 -45.741494 -2.341600 0.296980 23.385975 0.997087 5.465136 -1.145958 1.092900 -0.000000 -39.704000 8.371079 1.521879 -5.907820 9.314144 -33.501757 -45.714806 4.542306 -3.216526 27.027117 -2.268617 -9.874760 -4.067107 -1.369001 -0.000000 -68.624900
3.304741 16.958328 1.168020 14.437906 -59.838558 16.267453 -9.632660 -1.012015 2.610392 -14.503719 -12.006765 -45.919959 -2.318324 0.299814 23.439934 1.025470 5.594873 -1.209710 1.105300 -0.000000 -39.637200 8.347895 1.529301 -5.928265 9.425059 -33.309153 -45.818750 4.542102 -3.208120 26.973920 -2.273653 -9.907457 -3.984377 -1.392600 0.000000 -68.601200
3.317779 16.956493 1.178206 14.266575 -60.023592 16.541095 -9.636700 -1.038985 2.574052 -14.385277 -12.029988 -46.107239 -2.291943 0.305316 23.534144 1.058639 5.745654 -1.296108 1.117400 0.000000 -39.572001 8.326708 1.537154 -5.948973 9.526944 -33.094382 -45.927598 4.540646 -3.204208 26.949470 -2.276706 -9.927251 -3.914485 -1.412000 -0.000000 -68.574300
3.331747 16.953721 1.187621 14.093173 -60.237945 16.806084 -9.639478 -1.069152 2.527532 -14.271765 -12.030625 -46.304665 -2.263909 0.313984 23.671034 1.094947 5.907623 -1.405685 1.127700 -0.000000 -39.509900 8.307730 1.544773 -5.969418 9.622533 -32.867346 -46.046968 4.539337 -3.206021 26.958178 -2.276046 -9.925270 -3.860576 -1.425200 0.000000 -68.546500
3.346546 16.949722 1.196180 13.913606 -60.475006 17.062633 -9.639200 -1.100843 2.473832 -14.167730 -12.004519 -46.514777 -2.235593 0.325996 23.855779 1.132687 6.070633 -1.540718 1.134300 0.000000 -39.452400 8.293020 1.549668 -5.985970 9.716682 -32.636662 -46.184689 4.539470 -3.214809 27.005930 -2.270380 -9.894132 -3.827598 -1.430200 -0.000000 -68.518200
3.361533 16.944605 1.203917 13.732104 -60.738121 17.308714 -9.635643 -1.130782 2.414885 -14.077704 -11.946447 -46.736845 -2.208796 0.341464 24.080605 1.170622 6.227925 -1.697694 1.136400 0.000000 -39.402100 8.283043 1.552546 -5.996883 9.811201 -32.404385 -46.342611 4.541088 -3.229333 27.089392 -2.258851 -9.830229 -3.813555 -1.427100 -0.000000 -68.493700
3.376133 16.938599 1.210864 13.553112 -61.033951 17.546239 -9.629945 -1.156965 2.350154 -14.003987 -11.852017 -46.972505 -2.184911 0.360691 24.335739 1.207880 6.374766 -1.872020 1.134100 0.000000 -39.361400 8.276269 1.555629 -6.002960 9.908350 -32.167904 -46.523110 4.543960 -3.247783 27.201713 -2.241325 -9.733777 -3.814462 -1.416700 0.000001 -68.476600
3.390079 16.931745 1.217124 13.379450 -61.362942 17.778288 -9.622906 -1.179358 2.278893 -13.947698 -11.720031 -47.224652 -2.164796 0.383781 24.616906 1.243759 6.507255 -2.062333 1.126900 0.000000 -39.331299 8.271532 1.559644 -6.004890 10.009682 -31.925275 -46.729330 4.548066 -3.269755 27.341045 -2.218177 -9.606720 -3.829230 -1.399800 -0.000000 -68.468200
3.403209 16.924010 1.222812 13.211363 -61.723537 18.009332 -9.615100 -1.198508 2.200933 -13.908773 -11.551274 -47.496336 -2.148840 0.410727 24.922156 1.277827 6.623102 -2.268116 1.114500 0.000001 -39.311400 8.267952 1.564480 -6.002674 10.116694 -31.673829 -46.964108 4.553308 -3.295135 27.506533 -2.190254 -9.453055 -3.857465 -1.377201 0.000000 -68.468300
3.415382 16.915324 1.228094 13.047818 -62.112283 18.244423 -9.606525 -1.214542 2.117699 -13.885968 -11.348179 -47.790751 -2.137264 0.441304 25.250600 1.309797 6.720694 -2.489879 1.096999 0.000000 -39.300400 8.265513 1.569131 -5.994772 10.230934 -31.410151 -47.229769 4.559446 -3.323662 27.697509 -2.158673 -9.277897 -3.899384 -1.349799 -0.000000 -68.475300
3.426597 16.905730 1.233152 12.885155 -62.527039 18.488766 -9.597511 -1.227975 2.030111 -13.876656 -11.114194 -48.109801 -2.129828 0.475323 25.600004 1.339792 6.800891 -2.726965 1.074501 0.000000 -39.296100 8.263647 1.573230 -5.980662 10.353061 -31.130101 -47.526149 4.565913 -3.354778 27.911699 -2.124742 -9.087901 -3.953216 -1.319000 -0.000000 -68.487600
3.436875 16.895280 1.238155 12.719586 -62.965690 18.747456 -9.588129 -1.239014 1.939745 -13.878087 -10.853871 -48.454811 -2.126223 0.512461 25.967641 1.368138 6.865654 -2.978984 1.047601 -0.000000 -39.295799 8.262072 1.576254 -5.959440 10.483687 -30.829449 -47.852269 4.572120 -3.387707 28.145995 -2.089754 -8.889667 -4.017106 -1.286300 -0.000000 -68.504100
3.446138 16.883970 1.243346 12.546588 -63.425125 19.027517 -9.578602 -1.247651 1.848613 -13.886020 -10.571712 -48.827037 -2.125898 0.552483 26.352305 1.395234 6.917178 -3.245645 1.016700 0.000000 -39.297000 8.260625 1.577312 -5.930172 10.624010 -30.504563 -48.205624 4.577591 -3.421493 28.396614 -2.054926 -8.689650 -4.088837 -1.253100 0.000000 -68.522900
3.454541 16.871953 1.248893 12.360847 -63.902716 19.332622 -9.569082 -1.254341 1.758036 -13.896936 -10.273013 -49.225371 -2.128210 0.595090 26.751102 1.421551 6.958480 -3.525755 0.982500 -0.000000 -39.296400 8.258905 1.576246 -5.892983 10.773574 -30.153882 -48.582602 4.581828 -3.455426 28.659970 -2.021171 -8.492971 -4.165751 -1.220500 0.000000 -68.542900
3.462121 16.859272 1.254999 12.155178 -64.395516 19.670520 -9.560004 -1.259480 1.669490 -13.906113 -9.962618 -49.650071 -2.132336 0.640164 27.163267 1.447570 6.992208 -3.818706 0.945500 0.000000 -39.290500 8.256293 1.572474 -5.848239 10.934065 -29.776631 -48.979421 4.584769 -3.488627 28.931156 -1.989112 -8.303513 -4.245123 -1.189499 0.000000 -68.563300
3.468993 16.846022 1.261636 11.935253 -64.897730 20.033458 -9.550662 -1.263219 1.584297 -13.914980 -9.648016 -50.093979 -2.138008 0.686840 27.583249 1.473907 7.023237 -4.121739 0.906700 0.000001 -39.279300 8.253541 1.566615 -5.796336 11.099317 -29.378620 -49.392215 4.586275 -3.521470 29.209839 -1.958776 -8.121551 -4.326114 -1.160100 0.000000 -68.583600
3.475293 16.832304 1.269075 11.686506 -65.406874 20.435047 -9.542196 -1.266462 1.503237 -13.915950 -9.331495 -50.560096 -2.144078 0.735557 28.014067 1.500685 7.051586 -4.435199 0.865900 -0.000000 -39.258100 8.249111 1.557641 -5.738903 11.275482 -28.960058 -49.816722 4.586802 -3.552931 29.489946 -1.930329 -7.949080 -4.405859 -1.132900 0.000000 -68.603500
3.481046 16.818171 1.277192 11.417814 -65.916920 20.865370 -9.533835 -1.269343 1.427122 -13.912204 -9.019947 -51.040920 -2.150422 0.785450 28.450660 1.528407 7.081589 -4.755990 0.824100 0.000000 -39.228400 8.243822 1.546359 -5.676746 11.456377 -28.529272 -50.250722 4.586654 -3.583847 29.772216 -1.903181 -7.783143 -4.484400 -1.107300 0.000000 -68.623500
3.486318 16.803670 1.286042 11.127286 -66.423931 21.325080 -9.525761 -1.272402 1.356485 -13.901859 -8.717183 -51.534448 -2.156448 0.836373 28.892788 1.557209 7.114455 -5.082599 0.781600 0.000001 -39.189500 8.237305 1.532653 -5.611446 11.642754 -28.092316 -50.691604 4.586483 -3.614338 30.054517 -1.876874 -7.621898 -4.561202 -1.083000 -0.000000 -68.643900
3.491156 16.788833 1.295553 10.817667 -66.923691 21.810085 -9.517821 -1.276029 1.291531 -13.885731 -8.426893 -52.037724 -2.161865 0.888062 29.339399 1.587201 7.151484 -5.413246 0.738600 -0.000000 -39.141600 8.229593 1.516854 -5.544221 11.832996 -27.655500 -51.138171 4.586810 -3.644936 30.336676 -1.850770 -7.462323 -4.636512 -1.059500 0.000000 -68.665100
3.495567 16.773702 1.305637 10.492481 -67.413094 22.316153 -9.509813 -1.280564 1.232330 -13.864726 -8.152039 -52.548328 -2.166415 0.940228 29.789383 1.618512 7.194068 -5.745887 0.695499 0.000000 -39.086000 8.220773 1.499229 -5.476130 12.026129 -27.224643 -51.590482 4.588212 -3.676263 30.618996 -1.824259 -7.301321 -4.711106 -1.036200 0.000000 -68.687500
3.499462 16.758266 1.316234 10.157466 -67.889694 22.838356 -9.501467 -1.286095 1.178948 -13.840612 -7.895235 -53.064689 -2.170042 0.992643 30.242249 1.651154 7.242684 -6.079327 0.652301 0.000000 -39.024100 8.211106 1.480076 -5.407808 12.220719 -26.804233 -52.049145 4.591112 -3.708931 30.902438 -1.796867 -7.136321 -4.786154 -1.012500 -0.000000 -68.710900
3.502757 16.742514 1.327175 9.820161 -68.351995 23.369896 -9.492342 -1.292686 1.131333 -13.815662 -7.658535 -53.585636 -2.172772 1.045014 30.696869 1.685208 7.298251 -6.411826 0.609500 -0.000000 -38.957400 8.201024 1.459845 -5.339262 12.414734 -26.397128 -52.516598 4.595704 -3.743651 31.188753 -1.768422 -6.965923 -4.863196 -0.988000 0.000000 -68.735200
3.505427 16.726379 1.338478 9.479528 -68.800001 23.912060 -9.482709 -1.300638 1.088912 -13.789383 -7.440920 -54.112229 -2.174462 1.097568 31.155238 1.720459 7.359433 -6.743404 0.566600 -0.000001 -38.886400 8.190309 1.438323 -5.271043 12.609472 -26.003789 -52.992727 4.602193 -3.780550 31.477873 -1.738766 -6.789412 -4.942495 -0.962700 -0.000000 -68.760500
3.507369 16.709851 1.349970 9.146131 -69.233236 24.456331 -9.471837 -1.309829 1.051531 -13.765775 -7.244168 -54.644628 -2.175447 1.149976 31.615868 1.757033 7.427094 -7.073021 0.524000 -0.000001 -38.812400 8.179703 1.416137 -5.202133 12.801213 -25.623717 -53.481741 4.610321 -3.820414 31.773118 -1.708215 -6.607311 -5.026554 -0.936400 0.000000 -68.785200
3.508491 16.692840 1.361656 8.821303 -69.652797 25.003023 -9.459782 -1.320390 1.018664 -13.745332 -7.067005 -55.184655 -2.175825 1.202375 32.080000 1.794722 7.499796 -7.400919 0.481300 0.000000 -38.735700 8.169310 1.393184 -5.132018 12.989655 -25.254407 -53.985143 4.619886 -3.863389 32.075386 -1.677096 -6.420968 -5.115840 -0.909200 -0.000000 -68.809100
